<svg width="1120" height="720" viewBox="0 0 1120 720" fill="none" xmlns="http://www.w3.org/2000/svg">
  <style>
    @keyframes pulseLine { 0%,100% { opacity: .55; } 50% { opacity: 1; } }
    @keyframes candleRise { 0%,100% { transform: translateY(0); } 50% { transform: translateY(-5px); } }
    .pulse { animation: pulseLine 2.4s ease-in-out infinite; }
    .rise { animation: candleRise 3.2s ease-in-out infinite; transform-origin: center; }
  </style>
  <rect width="1120" height="720" rx="4" fill="#0B0E17"/>
  <rect x="1" y="1" width="1118" height="718" rx="4" stroke="#FFFFFF" stroke-opacity=".12"/>

  <rect x="0" y="0" width="1120" height="44" fill="#111420"/>
  <text x="22" y="28" fill="#E8EAF0" font-family="JetBrains Mono, monospace" font-size="16" font-weight="600">MAET</text>
  <rect x="84" y="13" width="76" height="18" rx="2" fill="#3B82F615" stroke="#3B82F6"/>
  <text x="96" y="26" fill="#3B82F6" font-family="JetBrains Mono, monospace" font-size="10">PAPER</text>
  <circle cx="1010" cy="22" r="4" fill="#22C55E" class="pulse"/>
  <text x="1022" y="26" fill="#6B7280" font-family="JetBrains Mono, monospace" font-size="11">NSE live</text>

  <rect x="0" y="44" width="220" height="620" fill="#111420"/>
  <rect x="14" y="60" width="190" height="30" rx="2" fill="#0B0E17" stroke="#FFFFFF" stroke-opacity=".10"/>
  <text x="28" y="79" fill="#374151" font-family="JetBrains Mono, monospace" font-size="11">Search</text>
  <g font-family="JetBrains Mono, monospace" font-size="12">
    <rect x="0" y="106" width="220" height="44" fill="#181C2E"/>
    <rect x="0" y="106" width="2" height="44" fill="#3B82F6"/>
    <text x="14" y="126" fill="#E8EAF0" font-weight="600">RELIANCE</text>
    <text x="14" y="140" fill="#6B7280" font-size="10" font-family="DM Sans, sans-serif">Reliance Industries</text>
    <text x="142" y="126" fill="#E8EAF0">2,847.50</text>
    <text x="166" y="140" fill="#22C55E" font-size="10">+1.24%</text>

    <rect x="0" y="150" width="220" height="44" fill="#111420"/>
    <text x="14" y="170" fill="#E8EAF0" font-weight="600">SBIN</text>
    <text x="14" y="184" fill="#6B7280" font-size="10" font-family="DM Sans, sans-serif">State Bank of India</text>
    <text x="154" y="170" fill="#E8EAF0">792.30</text>
    <text x="166" y="184" fill="#22C55E" font-size="10">+0.68%</text>

    <rect x="0" y="194" width="220" height="44" fill="#111420"/>
    <text x="14" y="214" fill="#E8EAF0" font-weight="600">HDFCBANK</text>
    <text x="14" y="228" fill="#6B7280" font-size="10" font-family="DM Sans, sans-serif">HDFC Bank</text>
    <text x="142" y="214" fill="#E8EAF0">1,641.75</text>
    <text x="166" y="228" fill="#EF4444" font-size="10">-0.33%</text>

    <rect x="0" y="238" width="220" height="44" fill="#111420"/>
    <text x="14" y="258" fill="#E8EAF0" font-weight="600">INFY</text>
    <text x="14" y="272" fill="#6B7280" font-size="10" font-family="DM Sans, sans-serif">Infosys</text>
    <text x="142" y="258" fill="#E8EAF0">1,538.45</text>
    <text x="166" y="272" fill="#22C55E" font-size="10">+2.11%</text>
  </g>

  <rect x="220" y="44" width="704" height="620" fill="#0B0E17"/>
  <rect x="220" y="44" width="704" height="40" fill="#111420"/>
  <text x="242" y="69" fill="#E8EAF0" font-family="JetBrains Mono, monospace" font-size="14" font-weight="600">RELIANCE</text>
  <text x="346" y="69" fill="#E8EAF0" font-family="JetBrains Mono, monospace" font-size="13">₹2,847.50</text>
  <rect x="448" y="55" width="56" height="18" rx="2" fill="#22C55E" fill-opacity=".12" stroke="#22C55E" stroke-opacity=".7"/>
  <text x="456" y="68" fill="#22C55E" font-family="JetBrains Mono, monospace" font-size="10">+1.24%</text>
  <g font-family="JetBrains Mono, monospace" font-size="10">
    <rect x="746" y="54" width="28" height="20" rx="2" fill="#0B0E17" stroke="#FFFFFF" stroke-opacity=".10"/><text x="754" y="68" fill="#6B7280">1m</text>
    <rect x="780" y="54" width="28" height="20" rx="2" fill="#3B82F615" stroke="#3B82F6"/><text x="788" y="68" fill="#3B82F6">5m</text>
    <rect x="814" y="54" width="36" height="20" rx="2" fill="#0B0E17" stroke="#FFFFFF" stroke-opacity=".10"/><text x="822" y="68" fill="#6B7280">15m</text>
    <rect x="856" y="54" width="28" height="20" rx="2" fill="#0B0E17" stroke="#FFFFFF" stroke-opacity=".10"/><text x="864" y="68" fill="#6B7280">1h</text>
  </g>

  <g opacity=".5" stroke="#FFFFFF" stroke-opacity=".06">
    <path d="M242 142H894M242 226H894M242 310H894M242 394H894M242 478H894M242 562H894"/>
    <path d="M290 104V620M370 104V620M450 104V620M530 104V620M610 104V620M690 104V620M770 104V620M850 104V620"/>
  </g>
  <g class="rise">
    <g stroke="#22C55E" stroke-width="2"><path d="M270 430V370"/><rect x="262" y="390" width="16" height="38" fill="#22C55E"/></g>
    <g stroke="#EF4444" stroke-width="2"><path d="M310 420V344"/><rect x="302" y="350" width="16" height="52" fill="#EF4444"/></g>
    <g stroke="#22C55E" stroke-width="2"><path d="M350 378V312"/><rect x="342" y="330" width="16" height="44" fill="#22C55E"/></g>
    <g stroke="#22C55E" stroke-width="2"><path d="M390 344V284"/><rect x="382" y="300" width="16" height="40" fill="#22C55E"/></g>
    <g stroke="#EF4444" stroke-width="2"><path d="M430 360V292"/><rect x="422" y="306" width="16" height="48" fill="#EF4444"/></g>
    <g stroke="#22C55E" stroke-width="2"><path d="M470 316V246"/><rect x="462" y="264" width="16" height="48" fill="#22C55E"/></g>
    <g stroke="#22C55E" stroke-width="2"><path d="M510 280V218"/><rect x="502" y="232" width="16" height="42" fill="#22C55E"/></g>
    <g stroke="#EF4444" stroke-width="2"><path d="M550 300V226"/><rect x="542" y="240" width="16" height="54" fill="#EF4444"/></g>
    <g stroke="#22C55E" stroke-width="2"><path d="M590 258V188"/><rect x="582" y="202" width="16" height="50" fill="#22C55E"/></g>
    <g stroke="#22C55E" stroke-width="2"><path d="M630 232V162"/><rect x="622" y="180" width="16" height="46" fill="#22C55E"/></g>
    <g stroke="#EF4444" stroke-width="2"><path d="M670 260V178"/><rect x="662" y="196" width="16" height="50" fill="#EF4444"/></g>
    <g stroke="#22C55E" stroke-width="2"><path d="M710 212V132"/><rect x="702" y="154" width="16" height="50" fill="#22C55E"/></g>
    <g stroke="#22C55E" stroke-width="2"><path d="M750 184V114"/><rect x="742" y="132" width="16" height="44" fill="#22C55E"/></g>
    <g stroke="#22C55E" stroke-width="2"><path d="M790 168V102"/><rect x="782" y="116" width="16" height="50" fill="#22C55E"/></g>
  </g>
  <path d="M256 420C320 396 354 330 422 354C500 382 516 246 604 228C682 212 716 142 820 122" stroke="#3B82F6" stroke-width="2" stroke-dasharray="5 5" class="pulse"/>

  <rect x="924" y="44" width="196" height="620" fill="#111420"/>
  <text x="944" y="80" fill="#6B7280" font-family="JetBrains Mono, monospace" font-size="11">RELIANCE OHLC</text>
  <g font-family="JetBrains Mono, monospace" font-size="11">
    <rect x="944" y="102" width="70" height="48" fill="#0B0E17" stroke="#FFFFFF" stroke-opacity=".10"/>
    <text x="954" y="122" fill="#6B7280">OPEN</text><text x="954" y="140" fill="#22C55E">₹2,811</text>
    <rect x="1026" y="102" width="70" height="48" fill="#0B0E17" stroke="#FFFFFF" stroke-opacity=".10"/>
    <text x="1036" y="122" fill="#6B7280">HIGH</text><text x="1036" y="140" fill="#22C55E">₹2,861</text>
    <rect x="944" y="162" width="70" height="48" fill="#0B0E17" stroke="#FFFFFF" stroke-opacity=".10"/>
    <text x="954" y="182" fill="#6B7280">LOW</text><text x="954" y="200" fill="#EF4444">₹2,796</text>
    <rect x="1026" y="162" width="70" height="48" fill="#0B0E17" stroke="#FFFFFF" stroke-opacity=".10"/>
    <text x="1036" y="182" fill="#6B7280">CLOSE</text><text x="1036" y="200" fill="#22C55E">₹2,847</text>
  </g>
  <rect x="944" y="544" width="74" height="22" rx="2" fill="#3B82F615" stroke="#3B82F6"/>
  <text x="958" y="559" fill="#3B82F6" font-family="JetBrains Mono, monospace" font-size="10">EMA</text>
  <rect x="1026" y="544" width="74" height="22" rx="2" fill="#3B82F615" stroke="#3B82F6"/>
  <text x="1042" y="559" fill="#3B82F6" font-family="JetBrains Mono, monospace" font-size="10">VWAP</text>

  <rect x="0" y="664" width="1120" height="56" fill="#111420"/>
  <text x="18" y="696" fill="#6B7280" font-family="JetBrains Mono, monospace" font-size="11">WS connected | Feed: 12,840 ticks | Broker: paper | Engine: ready</text>
  <text x="912" y="696" fill="#22C55E" font-family="JetBrains Mono, monospace" font-size="11">Day P&amp;L: +1,240.75</text>
</svg>
